<svg width="512" height="512" viewBox="0 0 512 512" fill="none" xmlns="http://www.w3.org/2000/svg">
<mask id="mask0_24132_27094" style="mask-type:alpha" maskUnits="userSpaceOnUse" x="0" y="0" width="512" height="512">
<circle cx="256" cy="256" r="256" fill="#D9D9D9"/>
</mask>
<g mask="url(#mask0_24132_27094)">
<circle cx="256" cy="256" r="256" fill="#121D28"/>
<path d="M84.1492 553.16C102.016 577.934 124.934 598.662 151.4 613.987C177.866 629.312 207.283 638.887 237.722 642.084C222.061 618.592 199.298 596.979 170.88 580.525C142.462 564.07 112.367 555.082 84.1492 553.16Z" fill="url(#paint0_linear_24132_27094)"/>
<path d="M209.066 515.007C154.316 483.298 95.057 475.217 52.6556 489.492C56.7489 502.979 62.1474 516.036 68.7747 528.482C105.614 527.631 145.837 537.605 183.264 559.276C220.692 580.946 249.318 610.854 266.834 643.184C280.97 642.752 295.031 640.957 308.82 637.826C300.248 594.042 263.803 546.722 209.066 515.007Z" fill="url(#paint1_linear_24132_27094)"/>
<path d="M469.97 386.3C463.009 358.075 450.414 331.537 432.936 308.272C415.459 285.007 393.457 265.491 368.246 250.89C343.035 236.288 315.13 226.901 286.199 223.289C257.268 219.677 227.903 221.913 199.858 229.865C246.71 235.581 298.716 253.114 349.718 282.651C400.72 312.187 441.796 348.533 469.97 386.3Z" fill="url(#paint2_linear_24132_27094)"/>
<path d="M401.802 489.815C377.821 450.112 336.738 412.094 286.13 382.786C235.522 353.478 182.055 336.738 135.618 335.631C94.7647 334.666 64.1032 346.505 51.5175 368.104C51.4459 368.232 51.3455 368.354 51.2667 368.482C50.1343 372.533 49.1595 376.592 48.2708 380.664C65.8449 373.748 86.207 369.897 108.848 369.468C159.198 368.525 215.547 384.58 267.545 414.695C319.544 444.81 361.479 485.671 385.59 529.726C396.398 549.574 403.143 569.115 405.816 587.785C408.927 585.013 411.98 582.147 414.94 579.168C415.019 579.032 415.069 578.889 415.148 578.746C427.733 557.126 422.867 524.718 401.802 489.815Z" fill="url(#paint3_linear_24132_27094)"/>
<path d="M247.627 448.846C170.128 403.963 84.4865 396.932 43.3035 428.255C43.3844 438.059 44.1363 447.846 45.554 457.549C57.6686 453.888 70.1543 451.582 82.7806 450.675C128.802 447.224 179.538 460.006 225.581 486.685C271.623 513.364 307.918 550.988 327.714 592.521C333.186 603.899 337.359 615.853 340.156 628.159C349.316 624.58 358.221 620.386 366.811 615.606C373.706 564.421 325.148 493.737 247.627 448.846Z" fill="url(#paint4_linear_24132_27094)"/>
<path d="M441.665 423.362C417.411 383.701 375.97 345.576 325.004 316.076C274.037 286.575 220.362 269.57 173.775 268.205C138.261 267.184 110.753 275.765 96.4903 291.976C155.713 281.973 233.829 298.785 309.544 342.633C385.259 386.48 438.626 445.811 459.225 502.047C466.284 481.678 460.142 453.606 441.665 423.362Z" fill="url(#paint5_linear_24132_27094)"/>
</g>
<path d="M184.915 93.1791H201.95V150.015C201.95 155.269 200.77 159.832 198.408 163.706C196.073 167.58 192.823 170.565 188.657 172.662C184.491 174.758 179.648 175.806 174.129 175.806C169.221 175.806 164.763 174.944 160.756 173.219C156.776 171.468 153.619 168.814 151.284 165.259C148.949 161.677 147.794 157.179 147.821 151.766H164.975C165.028 153.915 165.466 155.76 166.289 157.298C167.138 158.811 168.292 159.978 169.751 160.801C171.237 161.597 172.988 161.995 175.005 161.995C177.128 161.995 178.919 161.544 180.378 160.642C181.864 159.713 182.992 158.36 183.761 156.582C184.531 154.804 184.915 152.615 184.915 150.015V93.1791ZM226.388 174.692V93.1791H243.622V160.483H278.567V174.692H226.388ZM300.169 174.692V93.1791H332.328C338.511 93.1791 343.778 94.3599 348.129 96.7214C352.481 99.0564 355.798 102.307 358.08 106.473C360.388 110.612 361.542 115.388 361.542 120.801C361.542 126.214 360.375 130.99 358.04 135.129C355.705 139.269 352.322 142.493 347.891 144.801C343.486 147.109 338.153 148.264 331.891 148.264H311.393V134.453H329.105C332.421 134.453 335.154 133.882 337.304 132.741C339.479 131.574 341.098 129.968 342.159 127.925C343.247 125.856 343.791 123.481 343.791 120.801C343.791 118.095 343.247 115.733 342.159 113.716C341.098 111.673 339.479 110.095 337.304 108.98C335.128 107.839 332.368 107.269 329.025 107.269H317.403V174.692H300.169Z" fill="white"/>
<defs>
<linearGradient id="paint0_linear_24132_27094" x1="327.437" y1="307.244" x2="132.325" y2="643.716" gradientUnits="userSpaceOnUse">
<stop offset="0.0001" stop-color="#C7F284"/>
<stop offset="1" stop-color="#00BEF0"/>
</linearGradient>
<linearGradient id="paint1_linear_24132_27094" x1="327.437" y1="307.244" x2="132.325" y2="643.716" gradientUnits="userSpaceOnUse">
<stop offset="0.0001" stop-color="#C7F284"/>
<stop offset="1" stop-color="#00BEF0"/>
</linearGradient>
<linearGradient id="paint2_linear_24132_27094" x1="327.437" y1="307.244" x2="132.325" y2="643.716" gradientUnits="userSpaceOnUse">
<stop offset="0.0001" stop-color="#C7F284"/>
<stop offset="1" stop-color="#00BEF0"/>
</linearGradient>
<linearGradient id="paint3_linear_24132_27094" x1="327.437" y1="307.244" x2="132.325" y2="643.716" gradientUnits="userSpaceOnUse">
<stop offset="0.0001" stop-color="#C7F284"/>
<stop offset="1" stop-color="#00BEF0"/>
</linearGradient>
<linearGradient id="paint4_linear_24132_27094" x1="327.437" y1="307.244" x2="132.325" y2="643.716" gradientUnits="userSpaceOnUse">
<stop offset="0.0001" stop-color="#C7F284"/>
<stop offset="1" stop-color="#00BEF0"/>
</linearGradient>
<linearGradient id="paint5_linear_24132_27094" x1="327.437" y1="307.244" x2="132.325" y2="643.716" gradientUnits="userSpaceOnUse">
<stop offset="0.0001" stop-color="#C7F284"/>
<stop offset="1" stop-color="#00BEF0"/>
</linearGradient>
</defs>
</svg>
