<svg width="512" height="512" viewBox="0 0 512 512" fill="none" xmlns="http://www.w3.org/2000/svg">
<mask id="mask0_24132_57777" style="mask-type:alpha" maskUnits="userSpaceOnUse" x="0" y="0" width="512" height="512">
<circle cx="256" cy="256" r="256" fill="#D9D9D9"/>
</mask>
<g mask="url(#mask0_24132_57777)">
<circle cx="256" cy="256" r="256" fill="#121D28"/>
<path d="M84.1493 553.16C102.016 577.934 124.934 598.662 151.4 613.987C177.866 629.312 207.283 638.887 237.722 642.084C222.061 618.592 199.298 596.979 170.88 580.525C142.462 564.07 112.367 555.082 84.1493 553.16Z" fill="url(#paint0_linear_24132_57777)"/>
<path d="M209.066 515.007C154.316 483.298 95.057 475.217 52.6556 489.492C56.7489 502.979 62.1474 516.036 68.7747 528.482C105.614 527.631 145.837 537.605 183.264 559.276C220.692 580.946 249.318 610.854 266.834 643.184C280.97 642.752 295.031 640.957 308.82 637.826C300.248 594.042 263.803 546.722 209.066 515.007Z" fill="url(#paint1_linear_24132_57777)"/>
<path d="M469.97 386.3C463.009 358.075 450.414 331.537 432.936 308.272C415.459 285.007 393.457 265.491 368.246 250.89C343.035 236.288 315.13 226.901 286.199 223.289C257.268 219.677 227.903 221.913 199.858 229.865C246.71 235.581 298.716 253.114 349.718 282.651C400.72 312.187 441.796 348.533 469.97 386.3Z" fill="url(#paint2_linear_24132_57777)"/>
<path d="M401.802 489.815C377.821 450.112 336.738 412.094 286.13 382.786C235.522 353.478 182.055 336.738 135.618 335.631C94.7647 334.666 64.1032 346.505 51.5175 368.104C51.4459 368.232 51.3455 368.354 51.2667 368.482C50.1343 372.533 49.1595 376.592 48.2708 380.664C65.8449 373.748 86.207 369.897 108.848 369.468C159.198 368.525 215.547 384.58 267.546 414.695C319.544 444.81 361.479 485.671 385.59 529.726C396.398 549.574 403.143 569.115 405.816 587.785C408.927 585.013 411.98 582.147 414.94 579.168C415.019 579.032 415.069 578.889 415.148 578.746C427.734 557.126 422.867 524.718 401.802 489.815Z" fill="url(#paint3_linear_24132_57777)"/>
<path d="M247.627 448.846C170.128 403.963 84.4865 396.932 43.3035 428.255C43.3844 438.059 44.1363 447.846 45.554 457.549C57.6686 453.888 70.1544 451.582 82.7806 450.675C128.802 447.224 179.538 460.006 225.581 486.685C271.623 513.364 307.918 550.988 327.714 592.521C333.186 603.899 337.359 615.853 340.156 628.159C349.316 624.58 358.221 620.386 366.811 615.606C373.706 564.421 325.148 493.737 247.627 448.846Z" fill="url(#paint4_linear_24132_57777)"/>
<path d="M441.665 423.362C417.411 383.701 375.97 345.576 325.004 316.076C274.037 286.575 220.362 269.57 173.775 268.205C138.261 267.184 110.753 275.765 96.4903 291.976C155.713 281.973 233.829 298.785 309.544 342.633C385.259 386.48 438.626 445.811 459.225 502.047C466.284 481.678 460.142 453.606 441.665 423.362Z" fill="url(#paint5_linear_24132_57777)"/>
</g>
<path d="M185.035 116.622C184.717 113.411 183.35 110.917 180.935 109.139C178.521 107.362 175.244 106.473 171.105 106.473C168.292 106.473 165.917 106.871 163.98 107.667C162.043 108.436 160.557 109.511 159.522 110.891C158.514 112.27 158.01 113.836 158.01 115.587C157.957 117.046 158.262 118.32 158.925 119.408C159.615 120.496 160.557 121.438 161.751 122.234C162.945 123.003 164.325 123.68 165.891 124.264C167.456 124.821 169.128 125.298 170.906 125.697L178.229 127.448C181.785 128.244 185.048 129.305 188.02 130.632C190.992 131.959 193.566 133.59 195.741 135.527C197.917 137.464 199.602 139.746 200.796 142.373C202.017 145 202.64 148.012 202.667 151.408C202.64 156.396 201.367 160.721 198.846 164.383C196.352 168.018 192.743 170.844 188.02 172.861C183.323 174.851 177.658 175.846 171.025 175.846C164.445 175.846 158.713 174.837 153.831 172.821C148.975 170.804 145.181 167.819 142.448 163.866C139.741 159.886 138.322 154.964 138.189 149.099H154.866C155.052 151.832 155.834 154.114 157.214 155.945C158.62 157.75 160.491 159.116 162.826 160.045C165.187 160.947 167.854 161.398 170.826 161.398C173.745 161.398 176.279 160.973 178.428 160.124C180.604 159.275 182.289 158.095 183.483 156.582C184.677 155.07 185.274 153.332 185.274 151.368C185.274 149.537 184.73 147.998 183.642 146.751C182.581 145.504 181.015 144.443 178.945 143.567C176.902 142.692 174.395 141.896 171.423 141.179L162.547 138.95C155.675 137.279 150.249 134.665 146.269 131.109C142.289 127.554 140.312 122.764 140.338 116.741C140.312 111.806 141.625 107.494 144.279 103.806C146.959 100.118 150.634 97.2388 155.304 95.1691C159.974 93.0995 165.28 92.0647 171.224 92.0647C177.274 92.0647 182.554 93.0995 187.065 95.1691C191.602 97.2388 195.131 100.118 197.652 103.806C200.173 107.494 201.473 111.766 201.552 116.622H185.035ZM299.353 133.935C299.353 142.824 297.668 150.386 294.299 156.622C290.955 162.857 286.391 167.62 280.607 170.91C274.849 174.174 268.375 175.806 261.184 175.806C253.94 175.806 247.44 174.161 241.682 170.871C235.924 167.58 231.373 162.818 228.03 156.582C224.687 150.347 223.015 142.798 223.015 133.935C223.015 125.046 224.687 117.484 228.03 111.249C231.373 105.013 235.924 100.264 241.682 97C247.44 93.7098 253.94 92.0647 261.184 92.0647C268.375 92.0647 274.849 93.7098 280.607 97C286.391 100.264 290.955 105.013 294.299 111.249C297.668 117.484 299.353 125.046 299.353 133.935ZM281.881 133.935C281.881 128.177 281.018 123.322 279.294 119.368C277.595 115.415 275.194 112.416 272.09 110.373C268.985 108.33 265.35 107.308 261.184 107.308C257.018 107.308 253.383 108.33 250.279 110.373C247.174 112.416 244.76 115.415 243.035 119.368C241.337 123.322 240.488 128.177 240.488 133.935C240.488 139.693 241.337 144.549 243.035 148.502C244.76 152.456 247.174 155.454 250.279 157.497C253.383 159.541 257.018 160.562 261.184 160.562C265.35 160.562 268.985 159.541 272.09 157.497C275.194 155.454 277.595 152.456 279.294 148.502C281.018 144.549 281.881 139.693 281.881 133.935ZM322.309 174.692V93.1791H339.542V160.483H374.488V174.692H322.309Z" fill="url(#paint6_linear_24132_57777)"/>
<defs>
<linearGradient id="paint0_linear_24132_57777" x1="327.437" y1="307.244" x2="132.325" y2="643.716" gradientUnits="userSpaceOnUse">
<stop offset="0.0001" stop-color="#C7F284"/>
<stop offset="1" stop-color="#00BEF0"/>
</linearGradient>
<linearGradient id="paint1_linear_24132_57777" x1="327.437" y1="307.244" x2="132.325" y2="643.716" gradientUnits="userSpaceOnUse">
<stop offset="0.0001" stop-color="#C7F284"/>
<stop offset="1" stop-color="#00BEF0"/>
</linearGradient>
<linearGradient id="paint2_linear_24132_57777" x1="327.437" y1="307.244" x2="132.325" y2="643.716" gradientUnits="userSpaceOnUse">
<stop offset="0.0001" stop-color="#C7F284"/>
<stop offset="1" stop-color="#00BEF0"/>
</linearGradient>
<linearGradient id="paint3_linear_24132_57777" x1="327.437" y1="307.244" x2="132.325" y2="643.716" gradientUnits="userSpaceOnUse">
<stop offset="0.0001" stop-color="#C7F284"/>
<stop offset="1" stop-color="#00BEF0"/>
</linearGradient>
<linearGradient id="paint4_linear_24132_57777" x1="327.437" y1="307.244" x2="132.325" y2="643.716" gradientUnits="userSpaceOnUse">
<stop offset="0.0001" stop-color="#C7F284"/>
<stop offset="1" stop-color="#00BEF0"/>
</linearGradient>
<linearGradient id="paint5_linear_24132_57777" x1="327.437" y1="307.244" x2="132.325" y2="643.716" gradientUnits="userSpaceOnUse">
<stop offset="0.0001" stop-color="#C7F284"/>
<stop offset="1" stop-color="#00BEF0"/>
</linearGradient>
<linearGradient id="paint6_linear_24132_57777" x1="256.731" y1="77.6915" x2="256.731" y2="189.692" gradientUnits="userSpaceOnUse">
<stop stop-color="#C7F284"/>
<stop offset="1" stop-color="#67D9B9"/>
</linearGradient>
</defs>
</svg>
