<svg width="64" height="64" viewBox="0 0 64 64" fill="none" xmlns="http://www.w3.org/2000/svg">
<g clip-path="url(#clip0_20938_35418)">
<path d="M64 32C64 14.3269 49.6731 0 32 0C14.3269 0 0 14.3269 0 32C0 49.6731 14.3269 64 32 64C49.6731 64 64 49.6731 64 32Z" fill="#0F1524"/>
<path d="M11.9232 46.3578C14.0106 49.261 16.6882 51.6906 19.7803 53.4867C22.8725 55.2828 26.3094 56.4051 29.8656 56.7797C28.0361 54.0263 25.3764 51.4934 22.0563 49.5649C18.7362 47.6364 15.22 46.583 11.9232 46.3578Z" fill="url(#paint0_linear_20938_35418)"/>
<path d="M26.5177 41.8861C20.121 38.1698 13.1976 37.2228 8.2437 38.8959C8.72195 40.4765 9.35266 42.0067 10.127 43.4653C14.4311 43.3657 19.1304 44.5348 23.5031 47.0744C27.876 49.6141 31.2203 53.1194 33.267 56.9086C34.9185 56.858 36.5612 56.6475 38.1722 56.2805C37.1708 51.1492 32.9128 45.6032 26.5177 41.8861Z" fill="url(#paint1_linear_20938_35418)"/>
<path d="M57 26.8017C56.1867 23.4934 54.7152 20.3832 52.6731 17.6565C50.6313 14.9299 48.0607 12.6426 45.1152 10.9313C42.1697 9.2201 38.9096 8.11994 35.5294 7.69656C32.1493 7.27321 28.7186 7.53533 25.4418 8.46726C30.9159 9.13718 36.9918 11.1921 42.9507 14.6538C48.9092 18.1156 53.7084 22.3752 57 26.8017Z" fill="url(#paint2_linear_20938_35418)"/>
<path d="M49.0357 38.9336C46.2339 34.2803 41.4342 29.8247 35.5214 26.3897C29.6086 22.955 23.3618 20.9928 17.9366 20.8631C13.1635 20.7501 9.58117 22.1376 8.11076 24.669C8.10236 24.684 8.09066 24.6983 8.08146 24.7134C7.94913 25.1881 7.83526 25.6636 7.73141 26.1411C9.78465 25.3305 12.1636 24.8792 14.8089 24.8288C20.6916 24.7185 27.275 26.5999 33.3501 30.1294C39.4252 33.6589 44.3248 38.4478 47.1416 43.6112C48.4043 45.9374 49.1923 48.2276 49.5048 50.4158C49.8681 50.0907 50.2249 49.7551 50.5708 49.4058C50.5799 49.3899 50.5858 49.3733 50.595 49.3563C52.0654 46.8226 51.4968 43.0242 49.0357 38.9336Z" fill="url(#paint3_linear_20938_35418)"/>
<path d="M30.872 32.7852C21.8172 27.5247 11.8116 26.7009 7 30.372C7.00947 31.5209 7.09731 32.6681 7.26296 33.8051C8.67833 33.3762 10.1371 33.106 11.6123 32.9997C16.989 32.5952 22.9168 34.0931 28.296 37.22C33.6754 40.3466 37.9159 44.7564 40.2287 49.6239C40.8679 50.9574 41.3555 52.3584 41.6825 53.8009C42.7525 53.3814 43.7929 52.8897 44.7965 52.3297C45.6022 46.3305 39.9289 38.0464 30.872 32.7852Z" fill="url(#paint4_linear_20938_35418)"/>
<path d="M53.6931 31.1453C50.8592 26.4971 46.0175 22.0286 40.063 18.5713C34.1085 15.1137 27.8375 13.1208 22.3946 12.9608C18.2453 12.8411 15.0314 13.8468 13.3651 15.7468C20.2844 14.5744 29.4108 16.5448 38.257 21.6836C47.1029 26.8227 53.3381 33.7762 55.7446 40.3672C56.5694 37.9799 55.8517 34.6899 53.6931 31.1453Z" fill="url(#paint5_linear_20938_35418)"/>
</g>
<defs>
<linearGradient id="paint0_linear_20938_35418" x1="40.3475" y1="17.5362" x2="17.4444" y2="56.9086" gradientUnits="userSpaceOnUse">
<stop offset="0.0001" stop-color="#C7F284"/>
<stop offset="1" stop-color="#00BEF0"/>
</linearGradient>
<linearGradient id="paint1_linear_20938_35418" x1="40.3475" y1="17.5362" x2="17.4444" y2="56.9086" gradientUnits="userSpaceOnUse">
<stop offset="0.0001" stop-color="#C7F284"/>
<stop offset="1" stop-color="#00BEF0"/>
</linearGradient>
<linearGradient id="paint2_linear_20938_35418" x1="40.3475" y1="17.5362" x2="17.4444" y2="56.9086" gradientUnits="userSpaceOnUse">
<stop offset="0.0001" stop-color="#C7F284"/>
<stop offset="1" stop-color="#00BEF0"/>
</linearGradient>
<linearGradient id="paint3_linear_20938_35418" x1="40.3475" y1="17.5362" x2="17.4444" y2="56.9086" gradientUnits="userSpaceOnUse">
<stop offset="0.0001" stop-color="#C7F284"/>
<stop offset="1" stop-color="#00BEF0"/>
</linearGradient>
<linearGradient id="paint4_linear_20938_35418" x1="40.1964" y1="16.1894" x2="17.2933" y2="55.5618" gradientUnits="userSpaceOnUse">
<stop offset="0.0001" stop-color="#C7F284"/>
<stop offset="1" stop-color="#00BEF0"/>
</linearGradient>
<linearGradient id="paint5_linear_20938_35418" x1="40.3475" y1="17.5362" x2="17.4444" y2="56.9086" gradientUnits="userSpaceOnUse">
<stop offset="0.0001" stop-color="#C7F284"/>
<stop offset="1" stop-color="#00BEF0"/>
</linearGradient>
<clipPath id="clip0_20938_35418">
<rect width="64" height="64" fill="white"/>
</clipPath>
</defs>
</svg>
