<svg width="256" height="256" viewBox="0 0 256 256" fill="none" xmlns="http://www.w3.org/2000/svg">
<g clip-path="url(#clip0_21443_45411)">
<path d="M256 128C256 57.3076 198.692 0 128 0C57.3076 0 0 57.3076 0 128C0 198.692 57.3076 256 128 256C198.692 256 256 198.692 256 128Z" fill="#0F1524"/>
<path d="M47.6929 185.431C56.0425 197.044 66.7527 206.763 79.1214 213.947C91.4901 221.131 105.238 225.62 119.462 227.119C112.144 216.105 101.506 205.974 88.2251 198.26C74.9446 190.545 60.8799 186.332 47.6929 185.431Z" fill="url(#paint0_linear_21443_45411)"/>
<path d="M106.071 167.544C80.4842 152.679 52.7904 148.891 32.9748 155.584C34.8878 161.906 37.4106 168.027 40.5079 173.861C57.7243 173.463 76.5217 178.139 94.0122 188.298C111.504 198.457 124.881 212.478 133.068 227.634C139.674 227.432 146.245 226.59 152.689 225.122C148.683 204.597 131.651 182.413 106.071 167.544Z" fill="url(#paint1_linear_21443_45411)"/>
<path d="M228 107.207C224.747 93.9737 218.861 81.5329 210.692 70.626C202.525 59.7195 192.243 50.5705 180.461 43.7254C168.679 36.8804 155.638 32.4798 142.118 30.7862C128.597 29.0928 114.874 30.1413 101.767 33.8691C123.664 36.5487 147.967 44.7684 171.803 58.6152C195.637 72.4625 214.834 89.501 228 107.207Z" fill="url(#paint2_linear_21443_45411)"/>
<path d="M196.143 155.734C184.936 137.121 165.737 119.299 142.085 105.559C118.434 91.8197 93.4471 83.9712 71.7464 83.4523C52.6539 83.0002 38.3247 88.5505 32.443 98.6758C32.4095 98.7361 32.3626 98.7931 32.3258 98.8534C31.7965 100.752 31.3411 102.654 30.9256 104.564C39.1386 101.322 48.6545 99.5165 59.2356 99.3152C82.7663 98.8739 109.1 106.4 133.4 120.517C157.701 134.635 177.299 153.791 188.567 174.445C193.617 183.75 196.769 192.91 198.019 201.663C199.472 200.363 200.9 199.021 202.283 197.623C202.32 197.56 202.343 197.493 202.38 197.425C208.262 187.29 205.987 172.097 196.143 155.734Z" fill="url(#paint3_linear_21443_45411)"/>
<path d="M123.488 131.141C87.2689 110.099 47.2463 106.804 28 121.488C28.0379 126.084 28.3893 130.673 29.0518 135.221C34.7133 133.505 40.5484 132.424 46.4491 131.999C67.9558 130.381 91.6674 136.372 113.184 148.88C134.702 161.387 151.664 179.026 160.915 198.496C163.471 203.83 165.422 209.434 166.73 215.204C171.01 213.526 175.172 211.559 179.186 209.319C182.409 185.322 159.716 152.186 123.488 131.141Z" fill="url(#paint4_linear_21443_45411)"/>
<path d="M214.772 124.581C203.437 105.988 184.07 88.1145 160.252 74.2851C136.434 60.4548 111.35 52.483 89.5783 51.8432C72.9812 51.3642 60.1258 55.387 53.4603 62.987C81.1376 58.2977 117.643 66.1791 153.028 86.7345C188.412 107.291 213.352 135.105 222.978 161.469C226.278 151.919 223.407 138.759 214.772 124.581Z" fill="url(#paint5_linear_21443_45411)"/>
</g>
<defs>
<linearGradient id="paint0_linear_21443_45411" x1="161.39" y1="70.145" x2="69.7775" y2="227.634" gradientUnits="userSpaceOnUse">
<stop offset="0.0001" stop-color="#C7F284"/>
<stop offset="1" stop-color="#00BEF0"/>
</linearGradient>
<linearGradient id="paint1_linear_21443_45411" x1="161.39" y1="70.145" x2="69.7776" y2="227.634" gradientUnits="userSpaceOnUse">
<stop offset="0.0001" stop-color="#C7F284"/>
<stop offset="1" stop-color="#00BEF0"/>
</linearGradient>
<linearGradient id="paint2_linear_21443_45411" x1="161.39" y1="70.1449" x2="69.7776" y2="227.634" gradientUnits="userSpaceOnUse">
<stop offset="0.0001" stop-color="#C7F284"/>
<stop offset="1" stop-color="#00BEF0"/>
</linearGradient>
<linearGradient id="paint3_linear_21443_45411" x1="161.39" y1="70.1449" x2="69.7775" y2="227.634" gradientUnits="userSpaceOnUse">
<stop offset="0.0001" stop-color="#C7F284"/>
<stop offset="1" stop-color="#00BEF0"/>
</linearGradient>
<linearGradient id="paint4_linear_21443_45411" x1="160.786" y1="64.7578" x2="69.1734" y2="222.247" gradientUnits="userSpaceOnUse">
<stop offset="0.0001" stop-color="#C7F284"/>
<stop offset="1" stop-color="#00BEF0"/>
</linearGradient>
<linearGradient id="paint5_linear_21443_45411" x1="161.39" y1="70.1449" x2="69.7776" y2="227.634" gradientUnits="userSpaceOnUse">
<stop offset="0.0001" stop-color="#C7F284"/>
<stop offset="1" stop-color="#00BEF0"/>
</linearGradient>
<clipPath id="clip0_21443_45411">
<rect width="256" height="256" fill="white"/>
</clipPath>
</defs>
</svg>
