<svg width="512" height="512" viewBox="0 0 512 512" fill="none" xmlns="http://www.w3.org/2000/svg">
<g clip-path="url(#clip0_21443_45420)">
<path d="M512 256C512 114.615 397.385 0 256 0C114.615 0 0 114.615 0 256C0 397.385 114.615 512 256 512C397.385 512 512 397.385 512 256Z" fill="#0F1524"/>
<path d="M95.3859 370.862C112.085 394.088 133.505 413.525 158.243 427.894C182.98 442.263 210.475 451.24 238.925 454.237C224.289 432.211 203.011 411.947 176.45 396.519C149.889 381.091 121.76 372.664 95.3859 370.862Z" fill="url(#paint0_linear_21443_45420)"/>
<path d="M212.142 335.089C160.968 305.359 105.581 297.783 65.9496 311.168C69.7756 323.812 74.8212 336.053 81.0157 347.722C115.448 346.926 153.043 356.278 188.024 376.596C223.008 396.913 249.762 424.955 266.136 455.269C279.348 454.864 292.49 453.18 305.377 450.244C297.366 409.193 263.302 364.825 212.142 335.089Z" fill="url(#paint1_linear_21443_45420)"/>
<path d="M456 214.414C449.494 187.947 437.721 163.066 421.385 141.252C405.05 119.439 384.485 101.141 360.921 87.4507C337.357 73.7608 311.277 64.9595 284.235 61.5725C257.194 58.1857 229.749 60.2827 203.534 67.7381C247.327 73.0974 295.935 89.5367 343.605 117.23C391.274 144.925 429.667 179.002 456 214.414Z" fill="url(#paint2_linear_21443_45420)"/>
<path d="M392.286 311.469C369.871 274.242 331.473 238.598 284.171 211.118C236.868 183.64 186.894 167.942 143.493 166.905C105.308 166 76.6494 177.101 64.8861 197.352C64.8189 197.472 64.7253 197.586 64.6517 197.707C63.5931 201.505 62.6821 205.309 61.8513 209.128C78.2772 202.644 97.3091 199.033 118.471 198.631C165.533 197.748 218.2 212.799 266.801 241.035C315.402 269.271 354.598 307.583 377.133 348.889C387.235 367.499 393.539 385.821 396.038 403.327C398.945 400.726 401.8 398.041 404.566 395.247C404.639 395.12 404.687 394.986 404.76 394.85C416.524 374.58 411.974 344.194 392.286 311.469Z" fill="url(#paint3_linear_21443_45420)"/>
<path d="M246.976 262.282C174.538 220.198 94.4926 213.608 56 242.976C56.0758 252.167 56.7785 261.345 58.1037 270.441C69.4267 267.009 81.0967 264.848 92.8981 263.997C135.912 260.762 183.335 272.745 226.368 297.76C269.403 322.773 303.327 358.051 321.83 396.992C326.943 407.66 330.844 418.868 333.46 430.408C342.02 427.051 350.343 423.118 358.372 418.637C364.818 370.644 319.431 304.372 246.976 262.282Z" fill="url(#paint4_linear_21443_45420)"/>
<path d="M429.545 249.162C406.874 211.977 368.14 176.229 320.504 148.57C272.868 120.91 222.7 104.966 179.157 103.686C145.962 102.728 120.252 110.774 106.921 125.974C162.275 116.595 235.286 132.358 306.056 173.469C376.823 214.582 426.705 270.21 445.956 322.938C452.555 303.839 446.813 277.519 429.545 249.162Z" fill="url(#paint5_linear_21443_45420)"/>
</g>
<defs>
<linearGradient id="paint0_linear_21443_45420" x1="322.78" y1="140.29" x2="139.555" y2="455.269" gradientUnits="userSpaceOnUse">
<stop offset="0.0001" stop-color="#C7F284"/>
<stop offset="1" stop-color="#00BEF0"/>
</linearGradient>
<linearGradient id="paint1_linear_21443_45420" x1="322.78" y1="140.29" x2="139.555" y2="455.269" gradientUnits="userSpaceOnUse">
<stop offset="0.0001" stop-color="#C7F284"/>
<stop offset="1" stop-color="#00BEF0"/>
</linearGradient>
<linearGradient id="paint2_linear_21443_45420" x1="322.78" y1="140.29" x2="139.555" y2="455.268" gradientUnits="userSpaceOnUse">
<stop offset="0.0001" stop-color="#C7F284"/>
<stop offset="1" stop-color="#00BEF0"/>
</linearGradient>
<linearGradient id="paint3_linear_21443_45420" x1="322.78" y1="140.29" x2="139.555" y2="455.269" gradientUnits="userSpaceOnUse">
<stop offset="0.0001" stop-color="#C7F284"/>
<stop offset="1" stop-color="#00BEF0"/>
</linearGradient>
<linearGradient id="paint4_linear_21443_45420" x1="321.571" y1="129.516" x2="138.347" y2="444.494" gradientUnits="userSpaceOnUse">
<stop offset="0.0001" stop-color="#C7F284"/>
<stop offset="1" stop-color="#00BEF0"/>
</linearGradient>
<linearGradient id="paint5_linear_21443_45420" x1="322.78" y1="140.29" x2="139.555" y2="455.269" gradientUnits="userSpaceOnUse">
<stop offset="0.0001" stop-color="#C7F284"/>
<stop offset="1" stop-color="#00BEF0"/>
</linearGradient>
<clipPath id="clip0_21443_45420">
<rect width="512" height="512" fill="white"/>
</clipPath>
</defs>
</svg>
