<svg width="128" height="128" viewBox="0 0 128 128" fill="none" xmlns="http://www.w3.org/2000/svg">
<g clip-path="url(#clip0_21443_45402)">
<path d="M128 64C128 28.6538 99.3462 0 64 0C28.6538 0 0 28.6538 0 64C0 99.3462 28.6538 128 64 128C99.3462 128 128 99.3462 128 64Z" fill="#0F1524"/>
<path d="M23.8465 92.7156C28.0213 98.5221 33.3763 103.381 39.5607 106.973C45.745 110.566 52.6189 112.81 59.7311 113.559C56.0722 108.053 50.7528 102.987 44.1126 99.1298C37.4723 95.2727 30.4399 93.1661 23.8465 92.7156Z" fill="url(#paint0_linear_21443_45402)"/>
<path d="M53.0355 83.7722C40.2421 76.3397 26.3952 74.4456 16.4874 77.7918C17.4439 80.9529 18.7053 84.0133 20.2539 86.9306C28.8621 86.7314 38.2608 89.0695 47.0061 94.1489C55.7519 99.2282 62.4406 106.239 66.5339 113.817C69.8371 113.716 73.1225 113.295 76.3444 112.561C74.3416 102.298 65.8256 91.2063 53.0355 83.7722Z" fill="url(#paint1_linear_21443_45402)"/>
<path d="M114 53.6034C112.373 46.9869 109.43 40.7664 105.346 35.313C101.263 29.8598 96.1214 25.2852 90.2304 21.8627C84.3393 18.4402 77.8191 16.2399 71.0589 15.3931C64.2986 14.5464 57.4372 15.0707 50.8836 16.9345C61.8319 18.2744 73.9837 22.3842 85.9013 29.3076C97.8184 36.2313 107.417 44.7505 114 53.6034Z" fill="url(#paint2_linear_21443_45402)"/>
<path d="M98.0714 77.8672C92.4678 68.5606 82.8683 59.6495 71.0427 52.7794C59.2171 45.9099 46.7235 41.9856 35.8732 41.7262C26.3269 41.5001 19.1623 44.2753 16.2215 49.3379C16.2047 49.3681 16.1813 49.3966 16.1629 49.4267C15.8983 50.3762 15.6705 51.3273 15.4628 52.2821C19.5693 50.6609 24.3273 49.7583 29.6178 49.6577C41.3832 49.437 54.5501 53.1998 66.7002 60.2588C78.8504 67.3178 88.6496 76.8957 94.2833 87.2223C96.8087 91.8748 98.3847 96.4552 99.0096 100.832C99.7362 100.181 100.45 99.5103 101.142 98.8116C101.16 98.7799 101.172 98.7465 101.19 98.7126C104.131 93.6451 102.994 86.0484 98.0714 77.8672Z" fill="url(#paint3_linear_21443_45402)"/>
<path d="M61.744 65.5704C43.6344 55.0495 23.6231 53.4019 14 60.744C14.0189 63.0418 14.1946 65.3363 14.5259 67.6103C17.3567 66.7524 20.2742 66.212 23.2245 65.9994C33.9779 65.1904 45.8337 68.1862 56.592 74.44C67.3508 80.6933 75.8318 89.5128 80.4574 99.2479C81.7357 101.915 82.711 104.717 83.365 107.602C85.505 106.763 87.5858 105.779 89.5929 104.659C91.2044 92.661 79.8578 76.0929 61.744 65.5704Z" fill="url(#paint4_linear_21443_45402)"/>
<path d="M107.386 62.2906C101.718 52.9941 92.0351 44.0572 80.126 37.1425C68.217 30.2274 55.675 26.2415 44.7891 25.9216C36.4906 25.6821 30.0629 27.6935 26.7301 31.4935C40.5688 29.1488 58.8215 33.0895 76.5139 43.3672C94.2058 53.6454 106.676 67.5524 111.489 80.7343C113.139 75.9596 111.703 69.3797 107.386 62.2906Z" fill="url(#paint5_linear_21443_45402)"/>
</g>
<defs>
<linearGradient id="paint0_linear_21443_45402" x1="80.6949" y1="35.0725" x2="34.8888" y2="113.817" gradientUnits="userSpaceOnUse">
<stop offset="0.0001" stop-color="#C7F284"/>
<stop offset="1" stop-color="#00BEF0"/>
</linearGradient>
<linearGradient id="paint1_linear_21443_45402" x1="80.6949" y1="35.0725" x2="34.8888" y2="113.817" gradientUnits="userSpaceOnUse">
<stop offset="0.0001" stop-color="#C7F284"/>
<stop offset="1" stop-color="#00BEF0"/>
</linearGradient>
<linearGradient id="paint2_linear_21443_45402" x1="80.6949" y1="35.0724" x2="34.8888" y2="113.817" gradientUnits="userSpaceOnUse">
<stop offset="0.0001" stop-color="#C7F284"/>
<stop offset="1" stop-color="#00BEF0"/>
</linearGradient>
<linearGradient id="paint3_linear_21443_45402" x1="80.6949" y1="35.0725" x2="34.8888" y2="113.817" gradientUnits="userSpaceOnUse">
<stop offset="0.0001" stop-color="#C7F284"/>
<stop offset="1" stop-color="#00BEF0"/>
</linearGradient>
<linearGradient id="paint4_linear_21443_45402" x1="80.3928" y1="32.3789" x2="34.5867" y2="111.124" gradientUnits="userSpaceOnUse">
<stop offset="0.0001" stop-color="#C7F284"/>
<stop offset="1" stop-color="#00BEF0"/>
</linearGradient>
<linearGradient id="paint5_linear_21443_45402" x1="80.6949" y1="35.0724" x2="34.8888" y2="113.817" gradientUnits="userSpaceOnUse">
<stop offset="0.0001" stop-color="#C7F284"/>
<stop offset="1" stop-color="#00BEF0"/>
</linearGradient>
<clipPath id="clip0_21443_45402">
<rect width="128" height="128" fill="white"/>
</clipPath>
</defs>
</svg>
