<?xml version="1.0" encoding="utf-8"?>
<!-- Generator: Adobe Illustrator 26.3.1, SVG Export Plug-In . SVG Version: 6.00 Build 0)  -->
<svg version="1.1" id="Layer_1" xmlns="http://www.w3.org/2000/svg" xmlns:xlink="http://www.w3.org/1999/xlink" x="0px" y="0px"
	 viewBox="0 0 1800 600" style="enable-background:new 0 0 1800 600;" xml:space="preserve">
<style type="text/css">
	.st0{fill:#FFFFFF;}
	.st1{fill:#030303;}
</style>
<path class="st0" d="M627.17,232.14c-19.46-10.18-41.97-15.22-67.44-15.22s-47.58,5.6-67.19,16.8
	c-19.66,11.2-34.89,26.88-45.75,46.98c-10.85,20.16-16.3,43.98-16.3,71.52s5.6,50.55,16.81,71.01
	c11.21,20.51,27.15,36.24,47.83,47.29c20.68,11.05,44.98,16.54,72.9,16.54c20.68,0,39.48-3.97,56.34-11.86
	c16.86-7.94,30.57-18.83,41.11-32.78c10.49-13.95,17.47-29.73,20.94-47.29h-56.34c-3.82,14.81-11.56,26.27-23.28,34.36
	c-11.72,8.09-26.18,12.12-43.4,12.12c-14.16,0-26.69-3.11-37.75-9.32c-11.05-6.21-19.66-14.91-25.83-26.06
	c-6.21-11.2-9.63-24.33-10.34-39.5v-3.11h199.53c0.36-3.46,0.61-6.97,0.76-10.59c0.15-3.62,0.26-6.97,0.26-10.08
	c-0.36-25.5-6.01-47.8-17.07-66.89c-11.05-19.09-26.28-33.75-45.74-43.93H627.17z M491.46,323.31c1.38-12.42,5.45-23.26,12.12-32.53
	c6.72-9.32,15.08-16.54,25.06-21.68c9.99-5.19,21.04-7.74,33.06-7.74c19.66,0,35.91,5.34,48.85,16.03
	c12.94,10.69,20.43,26.01,22.47,45.97H491.41L491.46,323.31z M903.87,232.14c-19.46-10.18-41.97-15.22-67.44-15.22
	c-25.47,0-47.58,5.6-67.19,16.8c-19.66,11.2-34.89,26.88-45.74,46.98c-10.85,20.16-16.3,43.98-16.3,71.52s5.6,50.55,16.81,71.01
	c11.21,20.51,27.15,36.24,47.83,47.29c20.68,11.05,44.98,16.54,72.9,16.54c20.68,0,39.48-3.97,56.34-11.86
	c16.86-7.94,30.56-18.83,41.11-32.78c10.49-13.95,17.47-29.73,20.94-47.29h-56.34c-3.82,14.81-11.56,26.27-23.28,34.36
	c-11.72,8.09-26.18,12.12-43.4,12.12c-14.16,0-26.69-3.11-37.75-9.32c-11.05-6.21-19.66-14.91-25.83-26.06
	c-6.21-11.2-9.63-24.33-10.34-39.5v-3.11h199.53c0.36-3.46,0.61-6.97,0.76-10.59c0.15-3.62,0.26-6.97,0.26-10.08
	c-0.36-25.5-6.02-47.8-17.07-66.89c-11.05-19.09-26.29-33.75-45.74-43.93H903.87z M768.17,323.31c1.38-12.42,5.45-23.26,12.12-32.53
	c6.72-9.32,15.08-16.54,25.06-21.68c9.98-5.19,21.04-7.74,33.06-7.74c19.66,0,35.91,5.34,48.85,16.03
	c12.94,10.69,20.43,26.01,22.46,45.97H768.12L768.17,323.31z M1410.57,232.14c-19.45-10.18-41.97-15.22-67.44-15.22
	s-47.58,5.6-67.19,16.8c-19.66,11.2-34.91,26.88-45.75,46.98c-10.84,20.16-16.3,43.98-16.3,71.52s5.61,50.55,16.81,71.01
	c11.21,20.51,27.15,36.24,47.83,47.29c20.69,11.05,44.98,16.54,72.9,16.54c20.67,0,39.46-3.97,56.34-11.86
	c16.86-7.94,30.55-18.83,41.1-32.78c10.5-13.95,17.48-29.73,20.94-47.29h-56.34c-3.83,14.81-11.57,26.27-23.28,34.36
	c-11.72,8.09-26.19,12.12-43.4,12.12c-14.17,0-26.7-3.11-37.75-9.32c-11.05-6.21-19.66-14.91-25.83-26.06
	c-6.21-11.2-9.63-24.33-10.33-39.5v-3.11h199.53c0.36-3.46,0.62-6.97,0.77-10.59c0.15-3.62,0.26-6.97,0.26-10.08
	c-0.36-25.5-6.02-47.8-17.07-66.89c-11.05-19.09-26.28-33.75-45.73-43.93H1410.57z M1274.93,323.31
	c1.36-12.42,5.45-23.26,12.12-32.53c6.72-9.32,15.08-16.54,25.06-21.68c9.97-5.19,21.03-7.74,33.06-7.74
	c19.66,0,35.91,5.34,48.85,16.03c12.93,10.69,20.42,26.01,22.46,45.97h-141.62L1274.93,323.31z M1667.67,220.02v51.16h-113.34
	v212.82h-56.14V293.17c0-43.98,31.38-73.15,75.41-73.15H1667.67z M1123.73,350.69l124.05,132.75l-72.39,0.51l-98.01-107.96h-32.34
	v107.96H988.7v-371.9h56.34v212.31h33.31l97.04-106.95l72.39,0.51L1123.73,350.69z M395.03,321.78
	c10.85,13.79,16.3,31.86,16.3,54.26c0,21.02-5.76,39.96-17.32,56.81c-11.56,16.9-27.51,29.98-47.83,39.25
	c-20.32,9.32-43.4,13.95-69.28,13.95c-28.63,0-53.74-5.09-75.49-15.22c-21.7-10.13-38.61-24.54-50.63-43.11
	c-12.07-18.58-18.44-39.76-19.1-63.53l57.92,0.51c1.73,21.38,10.49,38.58,26.39,51.67c15.84,13.08,36.37,19.65,61.54,19.65
	c22.06,0,39.89-4.63,53.49-13.95s20.43-22.55,20.43-39.75c0-12.06-3.82-21.69-11.36-28.91c-7.59-7.23-17.57-12.57-30-16.03
	c-12.43-3.46-30.51-7.38-54.25-11.86l-2.6-0.51c-22.41-3.77-41.87-9.11-58.43-16.04c-16.56-6.87-29.9-17.21-40.04-31
	c-10.19-13.74-15.23-31.66-15.23-53.7c0-20.67,5.45-39.09,16.3-55.28c10.85-16.19,26.08-28.76,45.74-37.72
	c19.66-8.96,41.87-13.44,66.68-13.44c24.81,0,48.95,4.73,69.28,14.2c20.33,9.47,36.37,22.7,48.09,39.75
	c11.72,17.05,17.93,36.4,18.59,58.13h-57.92c-2.39-18.58-10.7-33.49-24.81-44.69c-14.11-11.2-31.89-16.8-53.23-16.8
	s-38.26,4.48-50.63,13.44c-12.43,8.96-18.59,21.68-18.59,38.23c0,12.06,3.72,21.38,11.11,27.9c7.39,6.57,17.32,11.71,29.7,15.47
	c12.43,3.82,30,7.74,52.72,11.86h0.51c23.43,4.12,43.61,9.47,60.46,16.04c16.86,6.57,30.77,16.7,41.62,30.49L395.03,321.78z"/>
</svg>
