<svg width="86" height="60" viewBox="0 0 86 60" fill="none" xmlns="http://www.w3.org/2000/svg">
<g clip-path="url(#clip0_11063_7843)">
<path d="M85.2275 59.5778H64.1866L39.9972 9.84738C38.4772 6.76216 33.7653 6.58956 32.1367 9.93368L8.07761 59.5562H0L26.2523 5.72655C29.7048 -1.67367 42.364 -1.37162 46.0771 5.72655L68.79 52.4796H73.6539L50.5719 5.14403C49.5731 3.33173 49.052 1.95093 47.38 0.48383C47.38 0.48383 55.7399 -0.443897 58.6061 4.99301L85.2275 59.5778Z" fill="black"/>
<path d="M40.0406 19.664L20.9757 59.5562H12.8764L35.1767 13.2778C36.1538 11.2929 35.9367 11.2713 36.8921 13.2347L40.0406 19.664Z" fill="black"/>
</g>
<defs>
<clipPath id="clip0_11063_7843">
<rect width="85.2275" height="59.2887" fill="white" transform="translate(0 0.289062)"/>
</clipPath>
</defs>
</svg>
