<svg width="694" height="177" viewBox="0 0 694 177" fill="none" xmlns="http://www.w3.org/2000/svg">
<path d="M669.18 46.375C673.68 46.375 677.5 46.7148 680.641 47.3945C683.781 48.0742 686.336 49.2344 688.305 50.875C690.273 52.5156 691.703 54.7188 692.594 57.4844C693.484 60.2266 693.93 63.6719 693.93 67.8203C693.93 71.8984 693.484 75.2852 692.594 77.9805C691.703 80.6758 690.273 82.8203 688.305 84.4141C686.336 86.0078 683.781 87.1328 680.641 87.7891C677.5 88.4453 673.68 88.7734 669.18 88.7734C665.969 88.7734 663.285 88.5977 661.129 88.2461C658.973 87.8945 657.203 87.4609 655.82 86.9453C654.461 86.4062 653.418 85.832 652.691 85.2227C651.988 84.6133 651.484 84.0391 651.18 83.5V101.5H644.43V47.5H651.18V51.2617C651.484 50.793 651.988 50.2773 652.691 49.7148C653.418 49.1289 654.461 48.5898 655.82 48.0977C657.203 47.6055 658.973 47.1953 661.129 46.8672C663.285 46.5391 665.969 46.375 669.18 46.375ZM669.18 52C666.93 52 664.926 52.0586 663.168 52.1758C661.41 52.293 659.863 52.5391 658.527 52.9141C657.191 53.2656 656.055 53.793 655.117 54.4961C654.203 55.1758 653.453 56.1016 652.867 57.2734C652.281 58.4219 651.848 59.8516 651.566 61.5625C651.309 63.2734 651.18 65.3242 651.18 67.7148C651.18 70.1289 651.309 72.2031 651.566 73.9375C651.848 75.6719 652.281 77.125 652.867 78.2969C653.453 79.4453 654.203 80.3711 655.117 81.0742C656.055 81.7539 657.191 82.2812 658.527 82.6562C659.863 83.0078 661.41 83.2422 663.168 83.3594C664.926 83.4531 666.93 83.5 669.18 83.5C671.805 83.5 674.066 83.418 675.965 83.2539C677.887 83.0898 679.516 82.7969 680.852 82.375C682.188 81.9531 683.266 81.3672 684.086 80.6172C684.93 79.8672 685.574 78.918 686.02 77.7695C686.488 76.5977 686.793 75.2031 686.934 73.5859C687.098 71.9453 687.18 70.0234 687.18 67.8203C687.18 65.6172 687.098 63.6953 686.934 62.0547C686.793 60.4141 686.488 59.0078 686.02 57.8359C685.574 56.6641 684.93 55.7031 684.086 54.9531C683.266 54.2031 682.188 53.6055 680.852 53.1602C679.516 52.7148 677.887 52.4102 675.965 52.2461C674.066 52.082 671.805 52 669.18 52Z" fill="#6F6F6F"/>
<path d="M628.645 82.4453C628.574 82.7266 628.047 83.4297 627.062 84.5547C626.359 85.3984 625.422 86.1484 624.25 86.8047C623.078 87.4375 621.508 87.9297 619.539 88.2812C617.594 88.6562 615.027 88.8438 611.84 88.8438C607.598 88.8438 603.977 88.6211 600.977 88.1758C597.977 87.7539 595.527 87.0977 593.629 86.207C591.73 85.293 590.336 84.1328 589.445 82.7266C588.578 81.3203 588.145 79.6445 588.145 77.6992C588.145 75.6602 588.379 73.9375 588.848 72.5312C589.34 71.1016 590.043 69.9062 590.957 68.9453C591.895 67.9844 593.02 67.2344 594.332 66.6953C595.645 66.1562 597.133 65.7461 598.797 65.4648C600.484 65.1836 602.324 65.0078 604.316 64.9375C606.309 64.8672 608.43 64.832 610.68 64.832C613.891 64.832 616.574 64.9727 618.73 65.2539C620.887 65.5117 622.645 65.8516 624.004 66.2734C625.387 66.6719 626.43 67.1055 627.133 67.5742C627.836 68.043 628.34 68.4766 628.645 68.875C628.645 66.25 628.527 64.0117 628.293 62.1602C628.082 60.3086 627.719 58.7617 627.203 57.5195C626.711 56.2773 626.066 55.293 625.27 54.5664C624.473 53.8164 623.488 53.2539 622.316 52.8789C621.168 52.5039 619.82 52.2695 618.273 52.1758C616.727 52.0586 614.957 52 612.965 52C609.871 52 607.305 52.082 605.266 52.2461C603.227 52.3867 601.609 52.6797 600.414 53.125C599.219 53.5703 598.375 54.1914 597.883 54.9883C597.391 55.7617 597.145 56.7812 597.145 58.0469H590.395C590.395 55.9141 590.77 54.1094 591.52 52.6328C592.293 51.1562 593.559 49.9609 595.316 49.0469C597.098 48.1094 599.43 47.4297 602.312 47.0078C605.195 46.5859 608.746 46.375 612.965 46.375C617.09 46.375 620.582 46.7148 623.441 47.3945C626.301 48.0742 628.609 49.2695 630.367 50.9805C632.148 52.6914 633.426 55 634.199 57.9062C634.996 60.7891 635.395 64.4453 635.395 68.875V88H628.645V82.4453ZM612.965 83.5C615.941 83.5 618.426 83.3594 620.418 83.0781C622.434 82.7969 624.051 82.375 625.27 81.8125C626.488 81.25 627.355 80.5469 627.871 79.7031C628.387 78.8594 628.645 77.875 628.645 76.75C628.645 75.625 628.34 74.6758 627.73 73.9023C627.145 73.1055 626.148 72.4609 624.742 71.9688C623.359 71.4766 621.52 71.125 619.223 70.9141C616.926 70.6797 614.09 70.5625 610.715 70.5625C607.34 70.5625 604.609 70.6211 602.523 70.7383C600.461 70.8555 598.867 71.125 597.742 71.5469C596.617 71.9688 595.855 72.5898 595.457 73.4102C595.082 74.2305 594.895 75.3438 594.895 76.75C594.895 78.1562 595.094 79.3047 595.492 80.1953C595.914 81.0625 596.758 81.7422 598.023 82.2344C599.289 82.7266 601.105 83.0664 603.473 83.2539C605.863 83.418 609.027 83.5 612.965 83.5Z" fill="#6F6F6F"/>
<path d="M583.82 47.5L568.07 88H559.07L546.695 54.8125L534.32 88H525.32L509.57 47.5H517.445L529.82 82.9375L543.32 47.5H550.07L563.43 82.9375L575.945 47.5H583.82Z" fill="#6F6F6F"/>
<path d="M479.195 69.543C476.008 69.543 473.207 69.4961 470.793 69.4023C468.379 69.3086 466.293 69.1211 464.535 68.8398C462.801 68.5352 461.348 68.1133 460.176 67.5742C459.027 67.0352 458.113 66.3203 457.434 65.4297C456.754 64.5156 456.273 63.4023 455.992 62.0898C455.711 60.7539 455.57 59.3125 455.57 57.7656C455.57 55.6562 456.016 53.8867 456.906 52.457C457.797 51.0039 459.227 49.832 461.195 48.9414C463.164 48.0273 465.719 47.3711 468.859 46.9727C472 46.5742 475.82 46.375 480.32 46.375C484.773 46.375 488.441 46.6094 491.324 47.0781C494.23 47.5469 496.527 48.2734 498.215 49.2578C499.926 50.2188 501.121 51.4375 501.801 52.9141C502.48 54.3906 502.82 56.1484 502.82 58.1875H496.07C496.07 56.9219 495.824 55.8906 495.332 55.0938C494.863 54.2969 494.031 53.6758 492.836 53.2305C491.641 52.7617 490.023 52.4453 487.984 52.2812C485.969 52.0938 483.414 52 480.32 52C476.945 52 474.109 52.0469 471.812 52.1406C469.516 52.2344 467.664 52.4688 466.258 52.8438C464.852 53.2188 463.844 53.793 463.234 54.5664C462.625 55.3398 462.32 56.4062 462.32 57.7656C462.32 58.5625 462.367 59.3477 462.461 60.1211C462.578 60.8711 462.824 61.4922 463.199 61.9844C463.574 62.4766 464.125 62.8516 464.852 63.1094C465.578 63.3672 466.562 63.5664 467.805 63.707C469.07 63.8242 470.629 63.8945 472.48 63.918C474.332 63.918 476.57 63.918 479.195 63.918C482.383 63.918 485.172 63.9883 487.562 64.1289C489.977 64.2695 492.062 64.5156 493.82 64.8672C495.578 65.2188 497.031 65.7578 498.18 66.4844C499.328 67.2109 500.242 68.0078 500.922 68.875C501.625 69.7188 502.117 70.7266 502.398 71.8984C502.68 73.0469 502.82 74.3828 502.82 75.9062C502.82 77.4297 502.68 78.8008 502.398 80.0195C502.117 81.2148 501.625 82.2812 500.922 83.2188C500.219 84.1328 499.258 84.9297 498.039 85.6094C496.844 86.2656 495.332 86.8047 493.504 87.2266C491.676 87.625 489.484 87.918 486.93 88.1055C484.398 88.3164 481.445 88.4219 478.07 88.4219C473.852 88.4219 470.301 88.2109 467.418 87.7891C464.559 87.3672 462.25 86.6992 460.492 85.7852C458.734 84.8477 457.469 83.6406 456.695 82.1641C455.945 80.6875 455.57 78.8828 455.57 76.75H462.32C462.32 78.1562 462.555 79.3047 463.023 80.1953C463.516 81.0625 464.359 81.7422 465.555 82.2344C466.75 82.7266 468.355 83.0664 470.371 83.2539C472.41 83.418 474.977 83.5 478.07 83.5C480.883 83.5 483.273 83.4414 485.242 83.3242C487.234 83.1836 488.898 82.9727 490.234 82.6914C491.57 82.4102 492.625 82.0703 493.398 81.6719C494.172 81.2734 494.758 80.793 495.156 80.2305C495.555 79.668 495.801 79.0469 495.895 78.3672C496.012 77.6641 496.07 76.8906 496.07 76.0469C496.07 75.2734 496.012 74.5938 495.895 74.0078C495.801 73.3984 495.566 72.8008 495.191 72.2148C494.816 71.6055 494.266 71.1484 493.539 70.8438C492.812 70.5391 491.816 70.293 490.551 70.1055C489.309 69.8945 487.762 69.7539 485.91 69.6836C484.059 69.5898 481.82 69.543 479.195 69.543Z" fill="#6F6F6F"/>
<path d="M446.57 70C446.57 73.4453 446.289 76.3281 445.727 78.6484C445.164 80.9453 444.215 82.7852 442.879 84.168C441.566 85.5508 439.832 86.5352 437.676 87.1211C435.52 87.707 432.859 88 429.695 88C426.625 88 424.047 87.7656 421.961 87.2969C419.875 86.8281 418.188 86.0312 416.898 84.9062C415.609 83.7812 414.684 82.2812 414.121 80.4062C413.559 78.5312 413.277 76.1875 413.277 73.375V53.0547H404.945V47.5H413.277V36.4258H420.027V47.5H445.445V53.0547H420.027V73.375C420.027 75.625 420.191 77.3594 420.52 78.5781C420.871 79.7969 421.422 80.6875 422.172 81.25C422.922 81.8125 423.906 82.1406 425.125 82.2344C426.367 82.3281 427.879 82.375 429.66 82.375C431.066 82.375 432.32 82.3516 433.422 82.3047C434.547 82.2578 435.52 82.1172 436.34 81.8828C437.184 81.625 437.898 81.25 438.484 80.7578C439.07 80.2422 439.539 79.5273 439.891 78.6133C440.266 77.6992 440.535 76.5508 440.699 75.168C440.863 73.7617 440.945 72.0391 440.945 70H446.57Z" fill="white"/>
<path d="M391.375 88V65.5C391.375 62.9922 391.188 60.8828 390.812 59.1719C390.438 57.4375 389.688 56.043 388.562 54.9883C387.438 53.9336 385.844 53.1719 383.781 52.7031C381.719 52.2344 379 52 375.625 52C371.969 52 368.969 52.2695 366.625 52.8086C364.305 53.3477 362.477 54.1094 361.141 55.0938C359.805 56.0781 358.879 57.2617 358.363 58.6445C357.871 60.0273 357.625 61.5625 357.625 63.25V88H350.875V47.5H357.625V54.25C358.117 53.1016 358.82 52.1172 359.734 51.2969C360.648 50.4531 361.68 49.7383 362.828 49.1523C363.977 48.5664 365.219 48.0977 366.555 47.7461C367.891 47.3711 369.227 47.0898 370.562 46.9023C371.898 46.6914 373.188 46.5508 374.43 46.4805C375.695 46.4102 376.844 46.375 377.875 46.375C380.875 46.375 383.453 46.5625 385.609 46.9375C387.789 47.3125 389.629 47.8633 391.129 48.5898C392.652 49.3164 393.871 50.2188 394.785 51.2969C395.699 52.375 396.402 53.6289 396.895 55.0586C397.41 56.4648 397.75 58.0469 397.914 59.8047C398.078 61.5391 398.16 63.4375 398.16 65.5L398.125 88H391.375Z" fill="white"/>
<path d="M319.375 88.7734C314.875 88.7734 311.055 88.4688 307.914 87.8594C304.773 87.2266 302.219 86.1484 300.25 84.625C298.281 83.1016 296.852 81.0625 295.961 78.5078C295.07 75.9531 294.625 72.7422 294.625 68.875C294.625 64.4453 295.07 60.7891 295.961 57.9062C296.852 55 298.281 52.6914 300.25 50.9805C302.219 49.2695 304.773 48.0742 307.914 47.3945C311.055 46.7148 314.875 46.375 319.375 46.375C322.586 46.375 325.363 46.6094 327.707 47.0781C330.074 47.5469 332.09 48.2266 333.754 49.1172C335.441 50.0078 336.801 51.0859 337.832 52.3516C338.887 53.6172 339.707 54.9531 340.293 56.3594C340.902 57.7422 341.312 59.3711 341.523 61.2461C341.758 63.1211 341.875 65.1016 341.875 67.1875L341.312 69.4375H301.375C301.375 72.5312 301.68 75.0742 302.289 77.0664C302.898 79.0352 303.906 80.4766 305.312 81.3906C306.719 82.3047 308.57 82.8906 310.867 83.1484C313.164 83.3828 316 83.5 319.375 83.5C322.469 83.5 325.023 83.418 327.039 83.2539C329.078 83.0664 330.695 82.7266 331.891 82.2344C333.086 81.7422 333.918 81.0625 334.387 80.1953C334.879 79.3047 335.125 78.1562 335.125 76.75H341.875C341.875 78.9297 341.488 80.793 340.715 82.3398C339.965 83.8633 338.711 85.1055 336.953 86.0664C335.195 87.0039 332.875 87.6836 329.992 88.1055C327.133 88.5508 323.594 88.7734 319.375 88.7734ZM319.375 52C317.125 52 315.109 52.0469 313.328 52.1406C311.57 52.2344 310.023 52.4453 308.688 52.7734C307.375 53.0781 306.25 53.5352 305.312 54.1445C304.375 54.7305 303.613 55.4336 303.027 56.2539C302.465 57.0508 302.043 58.1875 301.762 59.6641C301.504 61.1172 301.375 62.875 301.375 64.9375H335.125C335.125 62.1953 334.832 60.0508 334.246 58.5039C333.66 56.9336 332.734 55.6445 331.469 54.6367C330.203 53.6289 328.574 52.9375 326.582 52.5625C324.59 52.1875 322.188 52 319.375 52Z" fill="white"/>
<path d="M277.75 34H284.5V88H277.75V34Z" fill="white"/>
<path d="M257.5 47.5H264.25V88H257.5V47.5ZM264.25 40.75H257.5V34H264.25V40.75Z" fill="white"/>
<path d="M222.625 69.543C219.438 69.543 216.637 69.4961 214.223 69.4023C211.809 69.3086 209.723 69.1211 207.965 68.8398C206.23 68.5352 204.777 68.1133 203.605 67.5742C202.457 67.0352 201.543 66.3203 200.863 65.4297C200.184 64.5156 199.703 63.4023 199.422 62.0898C199.141 60.7539 199 59.3125 199 57.7656C199 55.6562 199.445 53.8867 200.336 52.457C201.227 51.0039 202.656 49.832 204.625 48.9414C206.594 48.0273 209.148 47.3711 212.289 46.9727C215.43 46.5742 219.25 46.375 223.75 46.375C228.203 46.375 231.871 46.6094 234.754 47.0781C237.66 47.5469 239.957 48.2734 241.645 49.2578C243.355 50.2188 244.551 51.4375 245.23 52.9141C245.91 54.3906 246.25 56.1484 246.25 58.1875H239.5C239.5 56.9219 239.254 55.8906 238.762 55.0938C238.293 54.2969 237.461 53.6758 236.266 53.2305C235.07 52.7617 233.453 52.4453 231.414 52.2812C229.398 52.0938 226.844 52 223.75 52C220.375 52 217.539 52.0469 215.242 52.1406C212.945 52.2344 211.094 52.4688 209.688 52.8438C208.281 53.2188 207.273 53.793 206.664 54.5664C206.055 55.3398 205.75 56.4062 205.75 57.7656C205.75 58.5625 205.797 59.3477 205.891 60.1211C206.008 60.8711 206.254 61.4922 206.629 61.9844C207.004 62.4766 207.555 62.8516 208.281 63.1094C209.008 63.3672 209.992 63.5664 211.234 63.707C212.5 63.8242 214.059 63.8945 215.91 63.918C217.762 63.918 220 63.918 222.625 63.918C225.812 63.918 228.602 63.9883 230.992 64.1289C233.406 64.2695 235.492 64.5156 237.25 64.8672C239.008 65.2188 240.461 65.7578 241.609 66.4844C242.758 67.2109 243.672 68.0078 244.352 68.875C245.055 69.7188 245.547 70.7266 245.828 71.8984C246.109 73.0469 246.25 74.3828 246.25 75.9062C246.25 77.4297 246.109 78.8008 245.828 80.0195C245.547 81.2148 245.055 82.2812 244.352 83.2188C243.648 84.1328 242.688 84.9297 241.469 85.6094C240.273 86.2656 238.762 86.8047 236.934 87.2266C235.105 87.625 232.914 87.918 230.359 88.1055C227.828 88.3164 224.875 88.4219 221.5 88.4219C217.281 88.4219 213.73 88.2109 210.848 87.7891C207.988 87.3672 205.68 86.6992 203.922 85.7852C202.164 84.8477 200.898 83.6406 200.125 82.1641C199.375 80.6875 199 78.8828 199 76.75H205.75C205.75 78.1562 205.984 79.3047 206.453 80.1953C206.945 81.0625 207.789 81.7422 208.984 82.2344C210.18 82.7266 211.785 83.0664 213.801 83.2539C215.84 83.418 218.406 83.5 221.5 83.5C224.312 83.5 226.703 83.4414 228.672 83.3242C230.664 83.1836 232.328 82.9727 233.664 82.6914C235 82.4102 236.055 82.0703 236.828 81.6719C237.602 81.2734 238.188 80.793 238.586 80.2305C238.984 79.668 239.23 79.0469 239.324 78.3672C239.441 77.6641 239.5 76.8906 239.5 76.0469C239.5 75.2734 239.441 74.5938 239.324 74.0078C239.23 73.3984 238.996 72.8008 238.621 72.2148C238.246 71.6055 237.695 71.1484 236.969 70.8438C236.242 70.5391 235.246 70.293 233.98 70.1055C232.738 69.8945 231.191 69.7539 229.34 69.6836C227.488 69.5898 225.25 69.543 222.625 69.543Z" fill="white"/>
<path d="M85.3673 27.1647C80.7653 29.4154 77.8716 34.0411 77 36.2293C79.9634 36.8545 87.2499 37.8555 92.6886 35.6048C98.1273 33.3541 99.1565 27.6313 98.9821 25.1305C96.3674 24.8179 89.9692 24.9141 85.3673 27.1647Z" fill="#FFD600"/>
<path fill-rule="evenodd" clip-rule="evenodd" d="M33.539 42.5C38.7355 50.4946 56.6811 60.8193 65.0219 64.9915C65.0336 64.9974 65.0454 65.0017 65.0582 65.0049C65.1391 61.7462 65.4104 57.7735 65.9938 53.5274C63.7925 52.8262 62.0202 51.4371 60.7074 49.9935C58.8369 47.9365 57.4278 45.2946 56.3679 42.5387C55.6877 40.7702 55.103 38.828 54.6221 36.7525C51.2021 36.981 47.0719 36.791 43.6435 35.3249C37.953 32.8915 36.8762 26.7039 37.0586 24C39.7944 23.6621 46.4888 23.766 51.3038 26.1994C56.1189 28.6328 59.1271 33.6341 60.0391 36C61.4693 41.8083 64.3354 46.0404 67.0221 47.471C69.1357 37.1227 73.2827 26.3957 81.0389 21C88.2409 15.9899 96.4491 13.2833 102.877 11.7514C99.7771 9.85722 97.1695 9.12563 96.0389 9.00001L100.039 0L85.0389 12C83.5389 12 79.8389 12.6 77.0389 15C74.239 17.4 70.539 20.6667 69.039 22C67.539 20.6667 63.839 17.4 61.039 15C58.239 12.6 54.539 12 53.039 12L38.039 0L42.039 9.00001C40.539 9.16668 36.439 10.4 32.0391 14C26.5391 18.5 27.0391 32.5 33.539 42.5Z" fill="white"/>
<path d="M64.5882 11.6667C61.6235 8.63333 56.2941 7.51389 54 7.33333C60.7765 3.86667 68.8235 3 72 3C71.6471 3.36111 70.7294 4.73333 69.8824 7.33333C69.0353 9.93333 68 14.1944 68 16C67.8235 15.8194 67.5529 14.7 64.5882 11.6667Z" fill="white"/>
<path fill-rule="evenodd" clip-rule="evenodd" d="M86 78.6655C86 78.2806 86.251 77.9354 86.6132 77.8052C106.12 70.7939 111.343 60.8662 114.725 48H123.998H183C183 61.5438 163.672 67.2916 156.292 65.3231L122.079 57.3322C121.741 58.1826 121.361 59.0122 120.941 59.8204C119.648 62.3066 117.977 64.5907 115.979 66.6578C115.418 67.2393 114.83 67.8036 114.218 68.3504C112.427 69.9503 110.426 71.4004 108.245 72.6921C107.703 73.013 107.15 73.3242 106.586 73.6254C105.595 74.1552 104.571 74.6545 103.516 75.1224C102.809 75.4363 102.088 75.7361 101.354 76.0215C100.579 76.3229 99.7895 76.6083 98.9868 76.8775C98.9387 76.8936 98.8907 76.9097 98.8425 76.9257C97.7103 77.302 96.5513 77.6462 95.3682 77.9576C94.6311 78.1516 93.8846 78.3329 93.1293 78.5014C93.0068 78.5287 92.8841 78.5556 92.7611 78.5823C92.7521 78.5842 92.7431 78.5862 92.734 78.5881C91.515 78.8517 90.2735 79.0818 89.012 79.2779C88.3492 79.381 87.6809 79.4746 87.0075 79.5587C86.4718 79.6256 86 79.2053 86 78.6655ZM123.802 60.8154C122.437 63.5417 120.677 66.0307 118.587 68.2753L136.427 79.3406C140.68 82.3222 158.539 88.2094 168.27 73.195C168.642 72.6205 168.307 71.8602 167.637 71.7162C164.264 70.9901 159.894 69.8919 154.789 68.6091C152.347 67.9954 149.737 67.3395 146.988 66.6618C143 65.6789 137.045 64.0988 131.227 62.5496L123.802 60.8154ZM116.828 70.0361C114.871 71.8624 112.681 73.5045 110.298 74.9579L120.024 85.6926C122.556 88.2937 131.855 93.9756 144.234 89.4183C144.99 89.1402 145.07 88.1271 144.387 87.7009C137.2 83.2168 130.918 79.1516 122.515 73.7144L122.513 73.7133C120.724 72.5556 118.839 71.3356 116.828 70.0361ZM108.572 75.9588C106.823 76.9237 104.982 77.7935 103.064 78.5666C105.111 81.6038 107.496 85.1161 109.501 88C112.693 92.5923 118.284 93.9321 121.89 93.7236C122.635 93.6806 122.928 92.8264 122.444 92.2579L108.572 75.9588ZM100.754 79.4382C99.4186 79.9087 98.0507 80.3347 96.6548 80.7157C97.3052 82.0847 98.0824 83.6821 99.001 85.4998C101.573 90.5889 105.991 92.3006 108.268 92.0531C108.832 91.9919 108.982 91.3609 108.66 90.8945L100.754 79.4382ZM97.026 86.1407L94.5339 81.255C93.0918 81.5953 91.6232 81.8892 90.133 82.136C91.9972 85.8094 94.895 87.2458 96.5665 87.1875C97.0845 87.1695 97.2615 86.6023 97.026 86.1407Z" fill="#6F6F6F"/>
<path fill-rule="evenodd" clip-rule="evenodd" d="M65.0391 177V81.0368C62.0391 80.8905 54.0391 77.9998 45.0386 72.0133C37.2835 66.8552 31.3867 61.0855 28.3616 58.1256C27.8301 57.6055 27.3873 57.1722 27.0386 56.8442C26.8995 56.7221 26.7227 56.5387 26.5227 56.3312C25.7641 55.544 24.6717 54.4104 24.0386 54.9663C23.0386 55.8442 25.7648 63.8172 36.0386 75.1589C44.5 84.4998 52.5389 88.7184 55.0391 89.45L43.0391 141.882C40.5391 153.295 47.8387 177 65.0391 177ZM8.03905 66.3795C12.8767 63.4736 17.9709 60.3739 21.3359 58.3158C21.7171 59.5243 22.3245 60.9452 23.1524 62.5286C23.2701 62.7537 23.3928 62.9833 23.5207 63.2171L2.53905 79.5486C1.20571 77.0611 0.439047 70.9448 8.03905 66.3795ZM17.79 71.4004C20.3657 69.2138 22.8311 67.1209 24.8212 65.4489C26.0682 67.4705 27.6453 69.7372 29.5961 72.203L3.19348 100.416C2.08198 101.603 0.158325 101.025 0.0609688 99.4015C-0.276333 93.7759 0.661492 85.7471 6.0382 81.3043C9.23145 78.6658 13.6524 74.9128 17.789 71.4012L17.79 71.4004ZM10.0562 97.9853L31.447 74.4665C32.1907 75.3476 32.9795 76.2504 33.8152 77.1728C35.4474 78.9748 37.0671 80.5961 38.641 82.0475C33.8427 90.5603 29.4212 98.1844 25.3164 105.262C20.5212 113.531 16.1584 121.053 12.1324 128.377C11.3066 129.879 9.1103 129.716 8.5878 128.083C3.11471 110.982 6.79512 101.65 10.0562 97.9853ZM21.3982 120.812L41.0253 84.1506C42.8157 85.6597 44.5187 86.9398 46.0797 88.0084C48.1477 89.4241 50.018 90.5033 51.5493 91.251L50 97.9998C48.966 101.492 47.8267 105.17 46.6625 108.932C43.9543 117.684 41.2282 126.494 40.0399 132.225C39.6105 134.296 39.208 136.195 38.8353 137.953C37.129 146.004 36.0482 151.103 35.8774 156.221C35.8218 157.886 33.9379 158.915 32.6396 157.871C15.2546 143.889 17.7316 127.028 21.3982 120.812Z" fill="white"/>
</svg>
