<svg width="600" height="150" viewBox="0 0 600 150" fill="none" xmlns="http://www.w3.org/2000/svg">
<path d="M92.2357 40.9298C87.5592 38.9544 82.419 37.8659 77.0168 37.8659C71.6146 37.8659 66.4744 38.9544 61.7979 40.9298L75.7771 16.7106C76.3214 15.7631 77.6921 15.7631 78.2363 16.7106L92.2256 40.9298H92.2357Z" fill="#171717"/>
<path d="M58.0788 42.7441C48.8668 47.844 41.9427 56.552 39.1912 66.9634L28.8 40.4865C28.3968 39.4685 29.2535 38.4001 30.332 38.5614L58.0788 42.7441Z" fill="#171717"/>
<path d="M46.2261 101.12L18.0056 92.4123C16.9574 92.0898 16.655 90.7493 17.4513 90.0135L38.4151 70.5615C38.0724 72.6478 37.891 74.7946 37.891 76.9817C37.891 86.0929 41.0053 94.4784 46.2261 101.12Z" fill="#171717"/>
<path d="M76.4321 116.097L51.6887 132.959C50.7816 133.574 49.552 132.989 49.4714 131.891L47.2642 102.37C54.3193 110.635 64.7609 115.916 76.4321 116.087V116.097Z" fill="#171717"/>
<path d="M106.679 102.491L104.481 131.86C104.401 132.949 103.171 133.544 102.264 132.929L77.571 116.097C89.212 115.936 99.6234 110.695 106.679 102.491Z" fill="#171717"/>
<path d="M136.008 92.3215L107.908 100.989C113.069 94.3675 116.143 86.0323 116.143 76.9816C116.143 74.7643 115.951 72.5872 115.598 70.4707L136.552 89.9126C137.358 90.6585 137.046 91.999 136.008 92.3114V92.3215Z" fill="#171717"/>
<path d="M125.234 40.5367L114.853 67.0036C112.111 56.6023 105.207 47.9043 96.0254 42.7843L123.702 38.6117C124.78 38.4504 125.637 39.5188 125.234 40.5367Z" fill="#171717"/>
<path d="M77.0169 124.543C71.2417 124.543 66.5652 129.22 66.5652 134.995H87.4786C87.4786 129.22 82.8021 124.543 77.0269 124.543H77.0169Z" fill="#171717"/>
<path d="M115.235 107.42C111.637 111.935 112.373 118.516 116.888 122.114L129.92 105.767C125.405 102.169 118.823 102.904 115.225 107.42H115.235Z" fill="#171717"/>
<path d="M123.802 66.9935C125.082 72.6275 130.696 76.145 136.32 74.8549L131.664 54.4656C126.03 55.7456 122.512 61.3595 123.802 66.9834V66.9935Z" fill="#171717"/>
<path d="M98.1519 35.0135C103.353 37.5231 109.601 35.3361 112.111 30.1253L93.2738 21.0544C90.7642 26.2551 92.9513 32.5039 98.162 35.0135H98.1519Z" fill="#171717"/>
<path d="M55.4078 35.0135C60.6085 32.5039 62.7956 26.2551 60.2859 21.0544L41.4487 30.1253C43.9583 35.326 50.2072 37.5131 55.4078 35.0035V35.0135Z" fill="#171717"/>
<path d="M30.5032 66.9937C31.7832 61.3596 28.2657 55.7558 22.6317 54.4758L17.9854 74.8652C23.6194 76.1452 29.2232 72.6277 30.5032 66.9937Z" fill="#171717"/>
<path d="M25.5647 105.767L38.6066 122.114C43.1219 118.516 43.8577 111.935 40.2595 107.42C36.6614 102.904 30.08 102.169 25.5647 105.767Z" fill="#171717"/>
<path d="M196.228 46.3826V76.3165H231.353V48.1161H247.358V115.241H231.353V90.588H196.228V115.241H180.223V50.7064L196.228 46.3826Z" fill="#171717"/>
<path d="M276.335 100.959H325.297L320.973 115.231H260.34V48.106H325.307L320.984 62.3775H276.345V74.5728H317.95V88.8443H276.345V100.959H276.335Z" fill="#171717"/>
<path d="M350.988 48.106V100.959H398.217L393.893 115.231H334.983V48.106H350.988Z" fill="#171717"/>
<path d="M421.146 48.106V115.231H405.141V48.106H421.146Z" fill="#171717"/>
<path d="M488.271 48.106H504.276V88.5924C504.276 108.145 488.271 116.702 467.599 116.702C446.928 116.702 432.042 107.53 432.042 88.5924V50.7064L448.047 46.3826V88.5924C448.047 98.4495 454.618 102.179 468.375 102.179C482.133 102.179 488.271 98.1975 488.271 88.5924V48.106Z" fill="#171717"/>
<path d="M512.409 68.5255C512.409 58.2351 520.543 48.106 536.457 48.106H582.134L577.811 62.3775H536.629C531.7 62.3775 529.271 65.4918 529.271 68.5155C529.271 71.5391 531.781 74.5728 536.629 74.5728H559.81C575.462 74.5728 583.596 84.6919 583.596 94.9924C583.596 105.293 575.896 115.231 559.81 115.231H512.409L516.733 100.959H559.639C564.486 100.959 566.996 98.1067 566.996 94.9924C566.996 91.878 564.577 88.7637 559.639 88.7637H536.457C520.281 88.7637 512.409 78.6446 512.409 68.5255Z" fill="#171717"/>
</svg>
