<svg width="400" height="400" viewBox="0 0 400 400" fill="none" xmlns="http://www.w3.org/2000/svg">
<path d="M240.484 101.053C228.027 95.7318 214.313 92.8006 199.936 92.8006C185.559 92.8006 171.855 95.7318 159.379 101.053L196.642 35.9181C198.094 33.3606 201.749 33.3606 203.211 35.9181L240.484 101.053Z" fill="#F5F5F5"/>
<path d="M149.466 105.922C124.933 119.644 106.463 143.063 99.1328 171.057L71.4415 99.8531C70.3693 97.1187 72.6501 94.2367 75.5353 94.6793L149.466 105.922Z" fill="#F5F5F5"/>
<path d="M117.896 262.917L42.6779 239.507C39.8903 238.642 39.0715 235.051 41.2159 233.045L97.0858 180.736C96.1695 186.353 95.6724 192.117 95.6724 197.999C95.6822 222.491 103.977 245.045 117.896 262.917Z" fill="#F5F5F5"/>
<path d="M198.376 303.186L132.448 348.541C130.04 350.203 126.755 348.61 126.531 345.669L120.634 266.291C139.446 288.511 167.254 302.714 198.376 303.186Z" fill="#F5F5F5"/>
<path d="M278.975 266.596L273.117 345.58C272.893 348.511 269.618 350.115 267.201 348.452L201.398 303.186C232.413 302.744 260.163 288.658 278.975 266.596Z" fill="#F5F5F5"/>
<path d="M357.117 239.231L282.25 262.543C295.993 244.73 304.181 222.323 304.181 197.998C304.181 192.028 303.684 186.185 302.738 180.5L358.579 232.769C360.713 234.786 359.904 238.376 357.117 239.231Z" fill="#F5F5F5"/>
<path d="M328.421 99.991L300.749 171.156C293.459 143.191 275.047 119.781 250.572 106.04L324.327 94.8074C327.213 94.3647 329.484 97.2369 328.421 99.991Z" fill="#F5F5F5"/>
<path d="M199.936 325.888C184.546 325.888 172.079 338.478 172.079 354H227.793C227.793 338.478 215.317 325.888 199.936 325.888Z" fill="#F5F5F5"/>
<path d="M301.792 279.845C292.201 291.983 294.17 309.668 306.208 319.357L340.946 275.399C328.909 265.711 311.384 267.707 301.792 279.845Z" fill="#F5F5F5"/>
<path d="M324.61 171.146C328.032 186.283 342.974 195.756 357.965 192.293L345.566 137.476C330.576 140.939 321.189 156.017 324.61 171.146Z" fill="#F5F5F5"/>
<path d="M256.254 85.148C270.114 91.8858 286.762 86.0038 293.439 72.0167L243.242 47.623C236.565 61.6101 242.394 78.4102 256.254 85.148Z" fill="#F5F5F5"/>
<path d="M142.351 85.148C156.211 78.4102 162.04 61.6101 155.363 47.623L105.166 72.0167C111.843 86.0038 128.491 91.8858 142.351 85.148Z" fill="#F5F5F5"/>
<path d="M75.9934 171.146C79.4146 156.008 70.0283 140.939 55.0276 137.486L42.6392 192.303C57.6398 195.756 72.5722 186.284 75.9934 171.146Z" fill="#F5F5F5"/>
<path d="M62.835 275.399L97.5831 319.357C109.611 309.678 111.58 291.983 101.989 279.845C92.3977 267.707 74.8628 265.72 62.835 275.399Z" fill="#F5F5F5"/>
</svg>
